<?xml version="1.0" encoding="iso-8859-1"?>
<!-- Generator: Adobe Illustrator 19.0.0, SVG Export Plug-In . SVG Version: 6.00 Build 0)  -->
<svg version="1.1" id="Layer_1" xmlns="http://www.w3.org/2000/svg" xmlns:xlink="http://www.w3.org/1999/xlink" x="0px" y="0px"
	 viewBox="0 0 512 512" style="enable-background:new 0 0 512 512;" xml:space="preserve">
<path style="fill:#A59D8C;" d="M256,8.303c-91.709,0-166.054,74.345-166.054,166.054v314.211h332.108V174.357
	C422.054,82.647,347.709,8.303,256,8.303z"/>
<path style="fill:#E2D8BD;" d="M134.227,488.568V174.357c0-67.146,54.627-121.773,121.773-121.773s121.773,54.627,121.773,121.773
	v314.211H134.227z"/>
<path style="fill:#F16831;" d="M474.638,445.578c-11.334,0-21.337,5.681-27.33,14.348c-5.993-8.667-15.995-14.348-27.33-14.348
	c-11.335,0-21.337,5.681-27.33,14.348c-5.991-8.667-15.994-14.348-27.328-14.348c-11.334,0-21.337,5.681-27.33,14.348
	c-5.993-8.667-15.995-14.348-27.33-14.348s-21.337,5.681-27.33,14.348c-5.993-8.667-15.995-14.348-27.33-14.348
	c-11.335,0-21.337,5.681-27.33,14.348c-5.993-8.667-15.995-14.348-27.33-14.348s-21.337,5.681-27.33,14.348
	c-5.993-8.667-15.995-14.348-27.33-14.348c-11.335,0-21.337,5.681-27.33,14.348c-5.993-8.667-15.995-14.348-27.33-14.348
	s-21.337,5.681-27.33,14.348c-5.987-8.667-15.99-14.348-27.324-14.348c-18.342,0-33.211,0-33.211,0V512h503.697v-66.422
	C507.849,445.578,492.98,445.578,474.638,445.578z"/>
<g>
	<circle style="fill:#440852;" cx="294.746" cy="362.551" r="8.303"/>
	<circle style="fill:#440852;" cx="327.957" cy="395.762" r="8.303"/>
	<circle style="fill:#440852;" cx="184.043" cy="395.762" r="8.303"/>
	<path style="fill:#440852;" d="M305.816,210.335h-99.632c-4.586,0-8.303,3.717-8.303,8.303c0,4.585,3.716,8.303,8.303,8.303h99.632
		c4.586,0,8.303-3.717,8.303-8.303C314.119,214.053,310.403,210.335,305.816,210.335z"/>
	<path style="fill:#440852;" d="M305.816,166.054h-99.632c-4.586,0-8.303,3.717-8.303,8.303c0,4.585,3.716,8.303,8.303,8.303h99.632
		c4.586,0,8.303-3.717,8.303-8.303C314.119,169.771,310.403,166.054,305.816,166.054z"/>
	<path style="fill:#440852;" d="M256,44.281c-28.6,0-55.761,9.15-78.545,26.459c-3.651,2.774-4.362,7.983-1.589,11.634
		s7.982,4.363,11.634,1.589C207.372,68.866,231.059,60.886,256,60.886c62.568,0,113.47,50.902,113.47,113.47v119.005
		c0,4.585,3.716,8.303,8.303,8.303s8.303-3.717,8.303-8.303V174.357C386.076,102.632,327.724,44.281,256,44.281z"/>
	<path style="fill:#440852;" d="M474.638,437.276c-10.159,0-19.842,3.726-27.33,10.274c-4.876-4.265-10.687-7.323-16.952-8.944
		v-264.25C430.357,78.216,352.141,0,256,0S81.643,78.216,81.643,174.357v264.25c-6.264,1.621-12.074,4.679-16.952,8.944
		c-7.487-6.548-17.17-10.274-27.329-10.274c-4.586,0-8.303,3.717-8.303,8.303c0,4.585,3.716,8.303,8.303,8.303
		c8.174,0,15.838,4.025,20.501,10.768c1.551,2.242,4.103,3.58,6.829,3.58c2.727,0,5.278-1.337,6.829-3.58
		c4.662-6.743,12.326-10.768,20.5-10.768s15.838,4.025,20.501,10.768c1.551,2.242,4.103,3.58,6.829,3.58
		c2.727,0,5.278-1.337,6.829-3.58c4.663-6.743,12.327-10.768,20.501-10.768c8.174,0,15.838,4.025,20.501,10.768
		c1.551,2.242,4.103,3.58,6.829,3.58s5.278-1.337,6.829-3.58c4.663-6.743,12.327-10.768,20.501-10.768s15.838,4.025,20.501,10.768
		c1.551,2.242,4.103,3.58,6.829,3.58s5.278-1.337,6.829-3.58c4.663-6.743,12.327-10.768,20.501-10.768s15.838,4.025,20.501,10.768
		c1.551,2.242,4.103,3.58,6.829,3.58s5.278-1.337,6.829-3.58c4.663-6.743,12.327-10.768,20.501-10.768
		c8.174,0,15.838,4.025,20.501,10.768c1.551,2.242,4.103,3.58,6.829,3.58s5.278-1.337,6.829-3.58
		c4.657-6.743,12.321-10.768,20.495-10.768c8.174,0,15.838,4.025,20.501,10.768c1.551,2.242,4.103,3.58,6.829,3.58
		s5.278-1.337,6.829-3.58c4.663-6.743,12.327-10.768,20.501-10.768c8.174,0,15.838,4.025,20.501,10.768
		c1.551,2.242,4.103,3.58,6.829,3.58s5.278-1.337,6.829-3.58c4.663-6.743,12.327-10.768,20.501-10.768
		c4.586,0,8.303-3.717,8.303-8.303C482.943,440.993,479.224,437.276,474.638,437.276z M392.649,447.55
		c-2.038-1.782-4.244-3.348-6.574-4.694V326.573c0-4.585-3.716-8.303-8.303-8.303s-8.303,3.717-8.303,8.303V437.49
		c-1.373-0.138-2.756-0.215-4.151-0.215c-10.159,0-19.842,3.726-27.33,10.274c-7.488-6.549-17.171-10.274-27.33-10.274
		s-19.842,3.726-27.33,10.274c-7.488-6.549-17.171-10.274-27.33-10.274c-10.159,0-19.842,3.726-27.33,10.274
		c-7.488-6.549-17.171-10.274-27.33-10.274s-19.842,3.726-27.33,10.274c-7.484-6.548-17.167-10.274-27.326-10.274
		c-1.395,0-2.779,0.076-4.151,0.215V174.357c0-24.942,7.979-48.629,23.076-68.5c2.774-3.651,2.062-8.86-1.589-11.634
		c-3.652-2.776-8.862-2.062-11.634,1.589c-17.311,22.784-26.459,49.944-26.459,78.545v268.499c-2.329,1.346-4.534,2.911-6.574,4.694
		c-5.938-5.194-13.26-8.603-21.103-9.795V174.357c0-86.985,70.767-157.751,157.751-157.751S413.75,87.372,413.75,174.357v263.398
		C405.909,438.947,398.587,442.357,392.649,447.55z"/>
</g>
<g>
</g>
<g>
</g>
<g>
</g>
<g>
</g>
<g>
</g>
<g>
</g>
<g>
</g>
<g>
</g>
<g>
</g>
<g>
</g>
<g>
</g>
<g>
</g>
<g>
</g>
<g>
</g>
<g>
</g>
</svg>
